<svg xmlns="http://www.w3.org/2000/svg" viewBox="0 0 1526.73 580.62">
  <defs>
    <style>
      .cls-1 {
        fill: #000001;
      }

      .cls-1, .cls-2, .cls-3 {
        stroke: #231f20;
        stroke-miterlimit: 2.61;
        stroke-width: 0.22px;
        fill-rule: evenodd;
      }

      .cls-2 {
        fill: #fff;
      }

      .cls-3, .cls-4 {
        fill: #231f20;
      }

      .cls-4 {
        font-size: 41.61px;
        font-family: Arial-Black, Arial Black;
        font-weight: 800;
      }
    </style>
  </defs>
  <g id="Layer_2" data-name="Layer 2">
    <g id="Layer_1-2" data-name="Layer 1">
      <g>
        <path class="cls-1" d="M501.7,92.32c1,2.72,2.24,6.17,3.71,10.35s3.08,8.68,4.81,13.64,3.5,10.09,5.22,15.26,3.5,10.24,5.12,15.1,3.09,9.25,4.34,13.17a2,2,0,0,1,0,1.73c-.26.52-.57.78-.94.78-1.1.11-2.82.16-5.17.21s-4.92.11-7.74.11H491.87c-3.4,0-6.32-.06-8.78-.11s-4.13-.1-5.22-.21a1.85,1.85,0,0,1-1-.73,3.78,3.78,0,0,1-.26-1.46c1.1-3.35,2.41-7.32,4-11.87s3.3-9.4,5.07-14.52,3.61-10.25,5.44-15.32,3.5-9.88,5.07-14.32,2.87-8.2,4-11.39c.21-.37.42-.52.78-.47s.58,0,.79,0ZM403.55,244.51a5.08,5.08,0,0,0-.84,2.61,16.7,16.7,0,0,0,0,3.87,5.08,5.08,0,0,0,.84,2.61c2,0,4.44-.1,7.37-.26s6.58-.26,10.87-.42,9.41-.26,15.31-.26,11.5.11,16.73.26,9.92.27,14,.42,7.16.26,9.41.26A7.51,7.51,0,0,0,478,251a24.06,24.06,0,0,0,.32-3.87,5.16,5.16,0,0,0-.47-2.61c-3-.31-5.81-.68-8.37-1.15s-4.8-.89-6.69-1.36a21.07,21.07,0,0,1-7-2.87,6.71,6.71,0,0,1-2.72-3.66,14,14,0,0,1-.31-4.76,54.88,54.88,0,0,1,2-8.73c1.15-3.86,2.61-8.25,4.28-13.17s3.56-9.82,5.39-14.89,3.6-9.72,5.22-14a6.06,6.06,0,0,1,1.2-1.77,3.12,3.12,0,0,1,1.94-1h55.5a3,3,0,0,1,1.52.73,3.32,3.32,0,0,1,1.3,1.47c1.42,3.6,3,7.73,4.81,12.49s3.5,9.61,5.28,14.68,3.45,10,5,14.64,2.72,8.67,3.71,12.12a6.72,6.72,0,0,1,.15,4.29c-.41,1.41-1.62,2.56-3.6,3.55a69.44,69.44,0,0,1-7.79,2c-2.87.52-6,1-9.46,1.46a4.33,4.33,0,0,0-.68,2.61,19.33,19.33,0,0,0,.21,3.87,7.51,7.51,0,0,0,.78,2.61c1.68-.1,4-.15,7.06-.26s6.38-.21,10.19-.31,7.74-.21,11.87-.26,8.1-.11,12-.11c4.76,0,9.57.05,14.38.16s9.3.26,13.48.42,7.63.26,10.4.36a7.61,7.61,0,0,0,.84-2.71,25,25,0,0,0,.41-3.87,3.5,3.5,0,0,0-.62-2.51,112.24,112.24,0,0,1-13.54-2.2,23.36,23.36,0,0,1-8.47-3.65,23.65,23.65,0,0,1-5.9-7.11,120.56,120.56,0,0,1-6-12.44c-1.62-3.82-3.61-8.83-6-15.21s-5.07-13.43-8-21.43-6-16.3-9.1-25-6.27-17.3-9.3-25.82-5.85-16.56-8.52-24-4.91-14-6.85-19.45-3.34-9.56-4.28-12.17c-1.1-3-2-5.86-2.88-8.57s-1.51-5.33-2.14-7.69c-.47,0-1.52.06-3.19.16s-4,.16-7.16.16c-2.66,0-4.91-.05-6.69-.16s-3-.16-3.66-.16a57.54,57.54,0,0,1-2,8.11c-.94,3.13-2.09,6.37-3.35,9.72s-2.92,8.25-5.17,14.52-4.91,13.49-7.89,21.64-6.27,16.83-9.72,26-6.9,18.29-10.46,27.43-6.89,17.88-10.19,26.13-6.21,15.58-8.93,22a132.11,132.11,0,0,1-6.9,14.37,29,29,0,0,1-6.85,8.2,25.31,25.31,0,0,1-9.15,4.24,101,101,0,0,1-13.79,2.35Zm-20.78,11a33.09,33.09,0,0,1-6.9-3.53,8.09,8.09,0,0,1-3-3.73A16.78,16.78,0,0,1,372,243c-.22-2.16-.36-5.18-.44-9.13s-.07-8.27-.07-13,.15-9.41.22-13.94.21-8.49.29-11.79c.14-6.19.93-10.86,2.51-14.1s4.24-5.39,8.27-6.61a46.2,46.2,0,0,1,6.61-1.65c2.45-.51,5-.94,7.62-1.37.58-.57.94-1.8,1.15-3.67a29.14,29.14,0,0,0,.15-5.6,7.7,7.7,0,0,0-.86-3.67c-2.81.14-6.26.36-10.36.5s-9.13.43-15.09.58-13.16.21-21.57.21c-13.16-.07-24.88-.28-35-.64s-18.62-.58-25.37-.65c-.58.5-1,1.73-1.37,3.52a23.37,23.37,0,0,0-.29,5.47c.15,1.79.51,2.94,1.22,3.52,6.55.79,12.08,1.51,16.54,2.16a124.66,124.66,0,0,1,12.37,2.15c4.09,1.08,7.33,2.52,9.49,4.32a14,14,0,0,1,4.74,7,46.28,46.28,0,0,1,1.73,11.51c.21,7.4.28,14.88.21,22.5s-.43,14.74-1.08,21.49a33.66,33.66,0,0,1-2.8,10.72,14.7,14.7,0,0,1-6.69,7.4A33.28,33.28,0,0,1,312,264.46a91.87,91.87,0,0,1-16.75,1.37c-19.48-.07-36.66-3.45-51.33-10.14a100,100,0,0,1-36.81-27.82,121.36,121.36,0,0,1-22.22-41.77c-5-15.89-7.4-33.22-7.4-51.84q0-26.62,6.11-48.38c4.1-14.52,10.21-27,18.48-37.46a82.07,82.07,0,0,1,31.13-24.23c12.43-5.61,27.1-8.48,43.92-8.55A194.83,194.83,0,0,1,301.82,17a108,108,0,0,1,19.05,4.1,74.74,74.74,0,0,1,14.88,6.62A30.89,30.89,0,0,1,346,37.2c2.73,4,5,9.35,6.62,16.11a183.53,183.53,0,0,1,4.24,26.17,8.85,8.85,0,0,0,4.38.93,27.82,27.82,0,0,0,6-.57c2-.36,3.24-.94,3.81-1.65.15-5,.43-10.5.94-16.68s1.08-12.44,1.79-18.91,1.59-12.51,2.45-18.26S378,13.7,378.89,9.6C370.33,8.66,361.7,7.44,353,6S335.1,3.2,325.4,2A286.84,286.84,0,0,0,293.48.11a239.67,239.67,0,0,0-45.58,4A167.65,167.65,0,0,0,209.36,16.5,128.2,128.2,0,0,0,168.81,45,124.93,124.93,0,0,0,142.64,86.6q-9.06,23.84-9.2,52.41.1,45.62,17.47,77.21t51.76,48.17c22.79,10.93,51.12,16.47,84.77,16.54A238.93,238.93,0,0,0,316,279c9.56-1.3,18.62-2.81,27.25-4.68s16.17-3.59,22.86-5.39,11.72-3.23,15.39-4.38a8.88,8.88,0,0,0,.79-2.66,34.87,34.87,0,0,0,.57-3.74,9.75,9.75,0,0,0-.07-2.66ZM615.52,67.65a4,4,0,0,1-.67-2.56,15.54,15.54,0,0,1,.31-3.86c.26-1.31.57-2.1,1-2.36,3.45,0,7.63.11,12.44.26s10.82.27,18,.42,16.09.26,26.65.26a51.76,51.76,0,0,0,1.2,6.07,45,45,0,0,0,1.89,5.64c.78,1.93,1.72,4.13,2.87,6.48q4.62,10.27,10.4,22.79t12,26c4.18,8.94,8.26,17.67,12.33,26.24s7.74,16.46,11.19,23.62,6.37,13.23,8.73,18.08,4,8.05,4.91,9.62a.83.83,0,0,0,.63.21.86.86,0,0,0,.62-.52c.79-1.47,2.25-4.29,4.34-8.52s4.65-9.41,7.68-15.63,6.33-13,9.93-20.38l11-22.89c3.71-7.84,7.37-15.52,10.87-23s6.79-14.42,9.72-20.85,5.38-11.81,7.32-16.31c1.41-3.24,2.61-6.16,3.5-8.78a38.86,38.86,0,0,0,1.83-7.84q11.45,0,19.75-.15c5.54-.11,10.35-.21,14.48-.32s7.84-.21,11.24-.31,6.74-.16,10-.16c.42.26.68,1.05.84,2.25a16.27,16.27,0,0,1,0,3.82,5.52,5.52,0,0,1-.84,2.71c-4.81.74-8.83,1.36-12.07,1.83a72.65,72.65,0,0,0-8.31,1.62c-3.24.94-5.54,2.41-6.85,4.5a14,14,0,0,0-1.93,8.05c-.11,2.82-.11,7.1-.11,12.75s.11,12.28.27,19.8.26,15.58.47,24.1.36,17,.62,25.55.47,16.68.73,24.36.53,14.48.74,20.33.52,10.4.73,13.59a39.83,39.83,0,0,0,1.51,8.93,12,12,0,0,0,3.56,5.65A18.51,18.51,0,0,0,848.2,242c2.19.47,4.65.89,7.47,1.26l9.77,1.25a5.34,5.34,0,0,1,.79,2.61,21.58,21.58,0,0,1-.16,3.66,8.07,8.07,0,0,1-.94,2.82c-3.81,0-9.25-.21-16.36-.47s-15.42-.42-25-.47c-5.8,0-11.34.05-16.67.16s-10.09.26-14.43.42-7.84.26-10.61.36a6.88,6.88,0,0,1-.68-2.61,25,25,0,0,1-.1-3.87,4.62,4.62,0,0,1,.78-2.61c3.77-.63,7-1.2,9.78-1.73a62.22,62.22,0,0,0,7.16-1.72c3.39-1,5.64-2.61,6.84-5a17.78,17.78,0,0,0,1.62-8.51c.05-3,.05-7.11.05-12.29s0-11-.05-17.71-.1-13.7-.15-21.17-.16-15-.21-22.63-.21-14.95-.32-22.05-.21-13.64-.26-19.6-.21-10.92-.31-15a.73.73,0,0,0-.68-.47,1.37,1.37,0,0,0-.89.47c-1.25,2.82-3.24,7.16-6,13.06s-6,12.91-9.83,20.91S781,147.77,776.65,157s-8.62,18.56-13,28-8.47,18.51-12.39,27.23-7.37,16.57-10.35,23.63-5.28,12.7-6.84,17.09a8.63,8.63,0,0,1-2.51.52c-1.26.1-2.56.21-3.87.21a12.11,12.11,0,0,1-2.72-.11c-1.15-3.86-3-9-5.54-15.62s-5.54-14.06-9-22.48-7.21-17.3-11.18-26.6-8-18.6-12-28-7.9-18.13-11.61-26.55-6.89-15.83-9.77-22.37-5.07-11.75-6.69-15.52c-.31-.31-.63-.42-.89-.26a1.28,1.28,0,0,0-.68.89q-.46,7-1.09,16.93c-.42,6.59-.84,13.8-1.31,21.59s-.89,15.73-1.31,23.83-.83,16-1.2,23.73-.68,14.73-.94,21.21-.36,11.87-.42,16.26a60.59,60.59,0,0,0,.58,9.88,11.85,11.85,0,0,0,9.77,10.5,60.11,60.11,0,0,0,8.2,1.83c3.09.47,7,1,11.55,1.62a4.66,4.66,0,0,1,.69,2.72,16.08,16.08,0,0,1-.42,3.86,4,4,0,0,1-1.21,2.51c-2,0-4.91-.1-8.67-.26s-8.1-.26-13-.42-10-.26-15.37-.26c-5.8,0-11.23.11-16.3.26s-9.51.27-13.28.42-6.53.26-8.36.26a4.62,4.62,0,0,1-.78-2.61,22.76,22.76,0,0,1,.1-3.87,6.88,6.88,0,0,1,.68-2.61c3-.47,5.8-.89,8.41-1.25s4.92-.79,7-1.26a19.57,19.57,0,0,0,7.47-3.61,14.33,14.33,0,0,0,4.08-6.69,64.1,64.1,0,0,0,2.24-12c.53-4.08,1.15-9.46,1.78-16.15s1.41-14.32,2.14-22.68,1.47-17.09,2.2-26.13,1.46-17.88,2.09-26.55,1.3-16.68,1.83-24,.94-13.49,1.25-18.4a16.68,16.68,0,0,0-1.67-7.94c-1.2-2.56-3.61-4.55-7.11-5.86a70.15,70.15,0,0,0-8.57-2.19c-3.45-.68-7.79-1.41-13.07-2.2Zm266.23-.31c3.61.47,6.74.94,9.51,1.46a56.83,56.83,0,0,1,7.11,1.68A14.19,14.19,0,0,1,904,72.93a8.67,8.67,0,0,1,2.72,4.81,46.06,46.06,0,0,1,1,8.73c.1,1.46.15,4.13.21,8s0,8.72,0,14.42.05,11.86.05,18.66v46.93c0,8.36,0,16-.05,23s0,12.8,0,17.5-.11,7.84-.21,9.41a38.71,38.71,0,0,1-1.52,8.83A11.27,11.27,0,0,1,903,238.6a13.39,13.39,0,0,1-5.91,2.77,70.46,70.46,0,0,1-10.4,1.83c-4.07.42-8.52.89-13.43,1.31a5.2,5.2,0,0,0-.73,2.82,16.1,16.1,0,0,0,.16,3.87,4,4,0,0,0,.89,2.4c6.37,0,13.64-.21,21.74-.47s17.35-.42,27.8-.47q16.15,0,29.79.32c9,.21,17.77.41,26.13.62s16.93.32,25.61.32a90.53,90.53,0,0,0,11.6-.53,13.29,13.29,0,0,0,5.44-1.67,7,7,0,0,0,2.4-2.82,91.52,91.52,0,0,0,3.82-9.3c1.36-3.82,2.66-7.79,4-12.08s2.35-8.25,3.34-12.07,1.62-7,2-9.51a8.58,8.58,0,0,0-2.56-1.67,25.79,25.79,0,0,0-3.76-1.36,7,7,0,0,0-2.77-.42c-1.36,3.19-3,6.53-4.76,10.09s-3.66,6.84-5.54,9.93a54.53,54.53,0,0,1-5.38,7.57,31.38,31.38,0,0,1-5.54,5.81,18.51,18.51,0,0,1-6.9,3.34,50.83,50.83,0,0,1-10.76,1.2c-2.62,0-5.65,0-9.15-.05s-7.16,0-10.92-.16-7.48-.2-11-.31-6.69-.31-9.35-.57a40.46,40.46,0,0,1-6-.79,9.7,9.7,0,0,1-5-4.08,13.93,13.93,0,0,1-2.2-7.83c-.1-3.09-.2-6.69-.31-10.93s-.16-8.72-.16-13.48-.1-9.56-.1-14.32-.05-9.25-.05-13.38V163.92a3.52,3.52,0,0,1,.52-1.62c.37-.52.68-.84,1-.89,3-.1,6.64-.15,10.93-.15s8.78-.06,13.43,0,9,.1,13,.26,7.27.26,9.67.52c3.5.36,6.06,1.41,7.58,3.14a13.59,13.59,0,0,1,3.08,5.95,34.84,34.84,0,0,1,1,3.56c.26,1.15.52,2.4.73,3.87s.47,3.29.78,5.43a5.42,5.42,0,0,0,3.14.94,15.42,15.42,0,0,0,4.39-.16,6,6,0,0,0,3.13-1.09c-.15-3.92-.31-8.21-.42-12.86s-.2-9.93-.2-15.68c0-3.71.1-7.42.36-11.13s.52-7.16.84-10.35.68-5.85,1-8a5.2,5.2,0,0,0-2.82-1.15,19.73,19.73,0,0,0-4.29-.31,9.25,9.25,0,0,0-3.24.52c-.47,2.36-1,4.6-1.62,6.75s-1.2,4.07-1.83,5.8a14.37,14.37,0,0,1-3.34,6.32c-1.52,1.73-4,2.72-7.32,3.08-2.87.21-6.37.42-10.5.53s-8.42.21-13,.26-9,0-13.27,0-8-.05-11.19-.16a1.47,1.47,0,0,1-1.14-.73,2.87,2.87,0,0,1-.42-1.46V120.65c.05-5,.05-10,.05-15.11s0-10,.1-14.63.11-8.73.16-12.28a6.15,6.15,0,0,1,.47-2.09,8.19,8.19,0,0,1,1.36-2.41,3.7,3.7,0,0,1,1.93-1.46c.74,0,2.25-.1,4.55-.16s5.12-.05,8.36-.05,6.74,0,10.4,0,7.11,0,10.51,0,6.32.05,8.83.05,4.28.11,5.33.16a24.71,24.71,0,0,1,8.1,1.83,11.38,11.38,0,0,1,4.7,3.87,22.09,22.09,0,0,1,2.88,6.22c.63,2.3,1.25,4.91,1.83,7.89s1.15,6.74,1.62,11.23a5.15,5.15,0,0,0,2.66.58,19,19,0,0,0,4.18-.16,4.69,4.69,0,0,0,2.88-1c.26-3.19.52-6.74.94-10.66s.78-8,1.31-12,1-7.84,1.56-11.35,1.21-6.53,1.83-8.93a1.87,1.87,0,0,0-.52-.79,5.85,5.85,0,0,0-.73-.78c-2.3.31-5.38.57-9.3.73s-8.16.31-12.65.42-8.78.1-12.86.1H923.77c-5.91,0-11.5-.1-16.88-.31s-10.14-.42-14.43-.63-7.73-.31-10.4-.31a7.18,7.18,0,0,0-1,2.67,14.32,14.32,0,0,0-.21,3.6,3.78,3.78,0,0,0,.89,2.51Zm391.41,41.11q3.49.4,6,.85a34.92,34.92,0,0,1,4.35,1,7.88,7.88,0,0,1,3,1.66,5.17,5.17,0,0,1,1.33,2.72,25.9,25.9,0,0,1,.42,4.69c.18,2.85.27,7.57.33,14.13s0,14.89,0,24.9q0,16.24,0,26.41c0,6.75-.06,11.77-.15,15a24.72,24.72,0,0,1-.66,5.11,5.33,5.33,0,0,1-1.85,2.9,10.71,10.71,0,0,1-3.84,1.61c-1.09.27-2.45.54-4,.78s-3.48.49-5.57.67a3.16,3.16,0,0,0-.49,1.57,9.32,9.32,0,0,0,0,2.24,2.46,2.46,0,0,0,.49,1.45c2.09,0,4.23-.06,6.44-.15s4.66-.15,7.38-.24,5.93-.15,9.59-.15c4.39,0,8.26.06,11.62.15s6.26.15,8.78.24,4.74.15,6.65.15a3.24,3.24,0,0,0,.55-1.51,11.19,11.19,0,0,0,.06-2.24,2.49,2.49,0,0,0-.43-1.51c-2.42-.27-4.6-.52-6.56-.76s-3.81-.51-5.6-.88a9,9,0,0,1-3.93-1.72,5.73,5.73,0,0,1-1.88-3,21,21,0,0,1-.54-4.87c-.09-1.93-.15-4.23-.21-6.92s-.09-5.57-.12-8.66,0-6.2,0-9.31v-8.87a1.11,1.11,0,0,1,.25-.51.92.92,0,0,1,.66-.4c.88,0,2.24-.06,4.09-.06s4,0,6.38,0,4.84,0,7.32.09,4.81.1,6.93.13,3.9.12,5.23.21a6.23,6.23,0,0,1,4,1.54,9.1,9.1,0,0,1,2.36,4.27c.36,1,.72,2.17,1.08,3.38a45.57,45.57,0,0,1,1.09,4.6,7.06,7.06,0,0,0,1.88.37,11,11,0,0,0,2.3-.13,3,3,0,0,0,1.63-.6c-.09-2.54-.18-5.29-.24-8.23s-.12-6-.12-9.2c0-2.14.06-4.35.15-6.59s.24-4.39.42-6.41.34-3.73.52-5.15a4.12,4.12,0,0,0-1.73-.54,16.83,16.83,0,0,0-2.48-.18,8.18,8.18,0,0,0-2,.18c-.28,1.54-.58,3-.94,4.32a27.89,27.89,0,0,1-1.24,3.66,12.58,12.58,0,0,1-1.3,2.79,6.33,6.33,0,0,1-2.21,2.05,9.19,9.19,0,0,1-3.75,1c-1.48.09-3.45.15-5.9.21s-5.08.1-7.93.13-5.62,0-8.35,0h-7.23a1,1,0,0,1-.51-.25,1,1,0,0,1-.4-.66c0-3.18,0-6.57,0-10.23s.06-7.32.09-11,.06-7.26.12-10.68.06-6.41.12-9.07a3.78,3.78,0,0,1,.27-1.31,3.88,3.88,0,0,1,.79-1.27,1.72,1.72,0,0,1,1.12-.69c.9-.12,2.33-.18,4.26-.24s4.12-.06,6.6-.06,5,0,7.53.06,4.9.06,7.08.12,3.9.09,5.2.12a8.56,8.56,0,0,1,5.24,1.66,9.57,9.57,0,0,1,2.93,4.51c.36,1.06.7,2.18,1,3.36s.57,2.48.85,3.93.57,3.12.87,5.05a2.74,2.74,0,0,0,1.73.52,11.84,11.84,0,0,0,2.51-.18,2.66,2.66,0,0,0,1.57-.7c.09-2.51.21-5,.4-7.59s.39-5,.63-7.33.48-4.41.79-6.26a32.9,32.9,0,0,1,.9-4.41c-.09-.22-.18-.43-.3-.7a.75.75,0,0,0-.6-.39c-1.24.18-2.76.33-4.57.48s-3.81.24-6,.3-4.48.12-6.87.12h-42.84c-3.23,0-6.32-.06-9.25-.15s-5.54-.15-7.81-.24-4-.15-5.26-.15a3.19,3.19,0,0,0-.46,1.42,11,11,0,0,0-.12,2.21,2.18,2.18,0,0,0,.39,1.45Zm-74.78,110.36a61.08,61.08,0,0,0,17.94-2.69,59,59,0,0,0,16.46-8,54.9,54.9,0,0,0,13.34-13.1,56.66,56.66,0,0,0,6.17-10.83,58.58,58.58,0,0,0,3.69-12.35,80.2,80.2,0,0,0,1.21-14.58A66,66,0,0,0,1255,140a56.21,56.21,0,0,0-6.71-15.49,49.34,49.34,0,0,0-11.17-12.5,50.25,50.25,0,0,0-15.58-8.35,63.7,63.7,0,0,0-20-3,62,62,0,0,0-14.07,1.66A67,67,0,0,0,1174,107a61.31,61.31,0,0,0-11.8,7.26,47.24,47.24,0,0,0-9.17,9.44,59.43,59.43,0,0,0-8.35,16.22,61.25,61.25,0,0,0-2.9,18.81,71.69,71.69,0,0,0,3.72,23.42,57.39,57.39,0,0,0,11.89,20.15,47.62,47.62,0,0,0,11,8.8,53.9,53.9,0,0,0,13.79,5.69A64.93,64.93,0,0,0,1198.38,218.81Z"/>
        <path class="cls-1" d="M189.48,568c-5-.57-9.27-1.08-12.79-1.51s-6.62-.93-9.21-1.44a60.09,60.09,0,0,1-7.33-1.79,19.36,19.36,0,0,1-7.91-3.74,15.76,15.76,0,0,1-4.6-7,55.8,55.8,0,0,1-2.16-12.08c-.21-3.81-.43-9.92-.57-18.4s-.22-18.62-.36-30.41-.14-24.45-.22-38.11-.07-27.46-.07-41.55-.07-27.68-.07-40.77V335.49a4.58,4.58,0,0,1,.58-2.08,3.19,3.19,0,0,1,1.58-1.37c2.59-.14,6.18-.21,10.78-.28s9.78-.08,15.53-.08,11.58,0,17.47.08,1283.93.13,1289,.28a18.22,18.22,0,0,1,10.21,3.17c2.73,1.94,4.9,5.05,6.61,9.34a67.29,67.29,0,0,1,3,10.21c.91,4.11,1.65,8.49,2.3,13.3s1.15,9.78,1.58,14.88a4.39,4.39,0,0,0,2.52.94,23.91,23.91,0,0,0,4.38.29,23.56,23.56,0,0,0,4.39-.43,4.28,4.28,0,0,0,2.52-1.23c.57-5.89,1.18-12.29,1.87-19.12s1.47-13.59,2.3-20.42,1.68-13.09,2.66-18.91a142.06,142.06,0,0,1,3.09-14.45,4.11,4.11,0,0,0-1.8-1.44,6.05,6.05,0,0,0-2.52-.71,65.47,65.47,0,0,1-12,4.17,75.51,75.51,0,0,1-12.94,1.86c-4.75.29-10.36.44-16.9.44H48.43a105.76,105.76,0,0,1-20.57-1.8,57.17,57.17,0,0,1-14.37-4.67,2.37,2.37,0,0,0-1.59.07,8.64,8.64,0,0,0-2.08.72c-.65.28-1,.64-1.08.93-.21,4.75-.65,10.21-1.22,16.39s-1.3,12.66-2.09,19.34-1.72,13.16-2.66,19.27S1,375.76.11,380.36c.43.72,1.59,1.43,3.45,2.15A33.85,33.85,0,0,0,9.46,384c2,.29,3.31.29,4-.14,2-5.54,4-10.79,5.89-15.89s3.81-9.71,5.61-13.8a76.76,76.76,0,0,1,5.32-10.43c2.59-4.24,5.32-7.33,8.27-9.13a20,20,0,0,1,9.85-2.95c4.24-.14,9.06-.21,14.59-.29s11.07-.07,16.61-.07,10.57.07,15,.07,7.55.15,9.49.29a2.72,2.72,0,0,1,2,1.08,3.6,3.6,0,0,1,1,2.37c0,14.45,0,29.34-.07,44.79s-.07,30.77-.14,46-.22,29.62-.36,43.28-.29,26-.43,36.88-.43,19.77-.72,26.6A90.5,90.5,0,0,1,104,549a19.43,19.43,0,0,1-4.74,9.92c-2.3,2.37-5.76,4-10.28,4.82A97.75,97.75,0,0,1,76.25,566c-5.18.72-11.14,1.36-17.9,2a9.35,9.35,0,0,0-.94,3.52,32.06,32.06,0,0,0-.14,5.18,7.65,7.65,0,0,0,1.08,3.81q8.41-.1,24.8-.65t40.33-.64c8.85,0,17.4.14,25.6.36s15.67.36,22.29.57,12.15.36,16.39.36c.72-.36,1.29-1.44,1.72-3.16a31.46,31.46,0,0,0,.65-5.32,9,9,0,0,0-.65-4Zm547.16-11.2a112.36,112.36,0,0,1-28.12-3.51,93.49,93.49,0,0,1-23.83-9.82,82.73,82.73,0,0,1-18.92-15.21,99.33,99.33,0,0,1-20.54-34.81A123.71,123.71,0,0,1,638.81,453a105.56,105.56,0,0,1,5-32.5,102.76,102.76,0,0,1,14.43-28,81.74,81.74,0,0,1,15.83-16.3,105.89,105.89,0,0,1,20.39-12.55,116.83,116.83,0,0,1,23.2-8.1,107.24,107.24,0,0,1,24.3-2.87,109.7,109.7,0,0,1,34.6,5.28,86.77,86.77,0,0,1,26.91,14.42A85,85,0,0,1,822.77,394a97.08,97.08,0,0,1,11.6,26.75,114.8,114.8,0,0,1,3.87,29.79,139.17,139.17,0,0,1-2.09,25.19A100.3,100.3,0,0,1,829.77,497a97.86,97.86,0,0,1-10.66,18.71,94.64,94.64,0,0,1-23.05,22.63,101.53,101.53,0,0,1-28.43,13.79,105.57,105.57,0,0,1-31,4.66ZM507.1,368.34c11.19,0,20.33,1.88,27.55,5.54a35.39,35.39,0,0,1,15.94,15.94q5.17,10.43,5.12,25.24a48.16,48.16,0,0,1-3,17.46,35.7,35.7,0,0,1-7.58,11.91,33.09,33.09,0,0,1-9.77,7c-3,1.26-7.84,2-14.59,2.46s-15.36.37-25.87.05a1.61,1.61,0,0,1-1.15-.52,1.76,1.76,0,0,1-.41-1V435.91c0-6,0-12.12.05-18.39s.05-12.29.1-18,.11-10.77.16-15.11.21-7.63.31-9.82a7.22,7.22,0,0,1,.74-2.72,5.23,5.23,0,0,1,1.46-2,21.54,21.54,0,0,1,3.66-1c1.41-.21,2.77-.36,4.07-.47s2.36-.1,3.24-.1Zm-68-2.2a4.7,4.7,0,0,1-.68-2.71,15.66,15.66,0,0,1,.31-3.82c.26-1.2.58-2,1-2.25,1.93,0,4.44.06,7.42.16l9.77.31,10.19.32c3.29.1,6.22.15,8.68.15,11.55-.05,21.53-.15,30.05-.31s15.78-.31,22-.31a72.77,72.77,0,0,1,24.25,3.81,50.31,50.31,0,0,1,17.56,10.45,43.7,43.7,0,0,1,10.71,15.37A48.14,48.14,0,0,1,583.93,406,52.89,52.89,0,0,1,581,423.79a48.71,48.71,0,0,1-7.89,14.11,59,59,0,0,1-11.39,10.82,77.41,77.41,0,0,1-13.54,7.73,3.13,3.13,0,0,0-.68,1.1,1.57,1.57,0,0,0,.06,1.1c2.24,3.55,4.91,7.63,8,12.28s6.59,9.51,10.25,14.63,7.47,10.19,11.34,15.26,7.63,9.78,11.34,14.17,7.05,8.2,10.14,11.39a98.63,98.63,0,0,0,8.41,7.89,34.4,34.4,0,0,0,7.37,4.76,44.67,44.67,0,0,0,8.52,2.71q4.78,1,11.76,1.89a6.25,6.25,0,0,1,.21,2.56,15.8,15.8,0,0,1-.63,3.86,3.61,3.61,0,0,1-1.46,2.36c-3.45.15-7.42.21-11.92.1s-9.09-.31-13.85-.73a118.85,118.85,0,0,1-13.59-1.93,46.4,46.4,0,0,1-10.81-3.4,34.58,34.58,0,0,1-7.27-4.6,54.08,54.08,0,0,1-7.79-7.94q-4.54-5.42-10-13.33c-3.71-5.28-7.53-10.87-11.45-16.83S538.41,492,534.75,486.4s-7-10.61-10.09-14.9a12.2,12.2,0,0,0-3.81-3.55,8.21,8.21,0,0,0-4-1.15,43.86,43.86,0,0,0-4.7-.31c-2-.06-4.13-.11-6.43-.11s-4.44.05-6.42.05-3.56.06-4.71.06a1.34,1.34,0,0,0-.89.83,3.45,3.45,0,0,0-.36,1.05v14.68c0,5.39.05,10.82.05,16.26s.1,10.45.21,15,.21,8.15.36,10.81a36.51,36.51,0,0,0,1.26,8.31,8.75,8.75,0,0,0,3.13,4.5,13.48,13.48,0,0,0,5.65,2.25q3.52.71,7.84,1.41t9.72,1.41a3.73,3.73,0,0,1,.89,2.61,16.33,16.33,0,0,1-.32,3.87,4.88,4.88,0,0,1-1.2,2.61c-3-.05-8.15-.21-15.31-.47s-16-.42-26.39-.47c-10.2.05-18.66.21-25.3.47s-11.55.42-14.53.47a4.18,4.18,0,0,1-1-2.61,15.66,15.66,0,0,1,0-3.87,4.18,4.18,0,0,1,1-2.61c3.45-.47,6.43-.89,9-1.26s4.92-.78,6.95-1.25a13,13,0,0,0,6-2.51,10.51,10.51,0,0,0,3.35-5.33,40.35,40.35,0,0,0,1.36-9.41c.05-1.51.1-4.23.21-8.1s.1-8.41.15-13.69.11-10.66.16-16.31.05-11,.05-16.09,0-9.36,0-12.91V432.57c0-7.63,0-14.74,0-21.32s-.05-12.29-.05-17.15-.11-8.57-.21-11c0-4.34-.84-7.58-2.35-9.83s-4.13-3.71-8-4.6c-2.35-.47-5-.94-7.89-1.36s-5.91-.83-9-1.15Zm-234.87,0a4.24,4.24,0,0,1-.73-2.56,14.07,14.07,0,0,1,.16-3.66,4.74,4.74,0,0,1,.89-2.56c2.56,0,5.9.11,10,.26s8.72.27,13.9.42,10.56.26,16.25.26c7,0,12.81-.1,17.56-.26s8.84-.31,12.23-.42,6.53-.26,9.41-.26a7.69,7.69,0,0,1,.63,2.77,17.13,17.13,0,0,1-.11,3.66,3.94,3.94,0,0,1-.83,2.35c-2.88.47-5.65.94-8.37,1.41s-4.91.94-6.69,1.41a13.91,13.91,0,0,0-5,2.36,8.06,8.06,0,0,0-2.72,4.28,28.93,28.93,0,0,0-1.05,7.79c-.21,3.81-.31,8.26-.36,13.43s-.05,11.39,0,18.71.05,16,.05,26.18a5,5,0,0,0,.42,1.94,2.33,2.33,0,0,0,1.15,1.2c.36,0,1,.1,2,.16s2.45.15,4.6.21,5.06.1,8.88.1,8.83.1,15,.1,13.74.06,22.79.06c11.44-.11,20.59-.16,27.49-.21s12-.16,15.41-.21,5.49-.11,6.33-.21a1.75,1.75,0,0,0,1.3-.73,1.85,1.85,0,0,0,.58-1.15V431.21c0-4.5,0-9.25-.05-14.22s-.06-9.87-.06-14.68-.1-9.15-.21-13.07-.15-7-.31-9.3a14.28,14.28,0,0,0-1.62-6.48,8.07,8.07,0,0,0-4.65-3.87,60.49,60.49,0,0,0-7.94-2c-3-.53-6.54-1-10.56-1.47a3.88,3.88,0,0,1-.94-2.56,11.07,11.07,0,0,1,.16-3.76,5.38,5.38,0,0,1,1.09-2.77c2.46,0,5.7.1,9.67.31s8.52.42,13.59.63,10.35.31,15.94.31c4,0,7.94-.05,12-.15l11.5-.32c3.6-.1,6.74-.21,9.4-.31s4.71-.16,6-.16a5.53,5.53,0,0,1,.68,2.56,17.27,17.27,0,0,1,.11,3.66,4.64,4.64,0,0,1-.79,2.56c-3.45.47-6.53.94-9.2,1.47a56.76,56.76,0,0,0-7.1,1.67,11.44,11.44,0,0,0-5.18,2.87,10.12,10.12,0,0,0-2.56,5.12,56,56,0,0,0-1,8.94c-.21,3.55-.37,8.21-.42,13.9s-.16,12.81-.21,21.43v52.79c0,7.31.05,14.37.1,21.11s.06,12.75.16,18,.21,9.2.37,12c.41,4.34,1.25,7.52,2.51,9.67a10.22,10.22,0,0,0,6.27,4.44,49.69,49.69,0,0,0,8.05,2c3.18.52,7.21,1,12,1.46a6,6,0,0,1,.52,2.72,16.08,16.08,0,0,1-.42,3.86,3.54,3.54,0,0,1-1.36,2.51c-3.19,0-7-.1-11.5-.26s-9.35-.26-14.58-.42-10.55-.26-15.94-.26-10.55.05-15.62.16-9.62.26-13.8.42-7.63.26-10.4.36a5,5,0,0,1-.84-2.56,15.76,15.76,0,0,1,0-3.76A6.16,6.16,0,0,1,339,543c4-.42,7.37-.89,10.14-1.31a55,55,0,0,0,7.73-1.83,10.16,10.16,0,0,0,4.5-2.3,9,9,0,0,0,2.51-4.39,36.63,36.63,0,0,0,1.14-7.73q.09-2.82.16-8.15c.05-3.56.05-7.63.11-12.29s.05-9.46.05-14.47V462.41a2.33,2.33,0,0,0-.58-1.46,1.62,1.62,0,0,0-1.3-.74c-1.57-.1-4.18-.15-7.89-.2s-8-.06-12.81-.06-9.82-.05-15-.05h-32.4c-6,0-11.44,0-16.46.05s-9.15.06-12.44.06-5.38.1-6.22.2c-.31.06-.57.32-.73.84a3.49,3.49,0,0,0-.21,1.05v26.65c.05,5,.05,9.72.05,14.27s.05,8.52.11,11.86.1,5.75.15,7.11a50.43,50.43,0,0,0,1.05,8.73,10.78,10.78,0,0,0,2.82,5.43,12.44,12.44,0,0,0,5.85,3.09c1.52.41,3.19.83,4.87,1.25s3.71.84,6,1.25,4.92.84,8,1.26a4.88,4.88,0,0,1,.52,2.93,15.42,15.42,0,0,1-.63,3.86,4,4,0,0,1-1.14,2.3c-3-.05-8.11-.21-15.11-.47s-15.57-.42-25.66-.47c-6.22,0-12.12.11-17.61.26s-10.4.26-14.58.42-7.37.26-9.51.26a5.08,5.08,0,0,1-.84-2.61,19.27,19.27,0,0,1-.11-3.87,6.19,6.19,0,0,1,.63-2.61c3.71-.47,6.95-.94,9.67-1.41s5.12-.94,7.26-1.41a13.66,13.66,0,0,0,6.69-4,15.63,15.63,0,0,0,3-7.21,90.94,90.94,0,0,0,1.26-11.7c0-2.72,0-6.28.05-10.77s0-9.56.11-15.31.1-11.87.1-18.4,0-13.27,0-20.12c0-7.68,0-15.31,0-22.89s-.1-14.58-.16-21.06-.1-12-.21-16.41-.1-7.48-.2-8.94c-.27-4.34-1-7.53-2.25-9.62a9.71,9.71,0,0,0-6.53-4.18,48.2,48.2,0,0,0-8-1.83c-3-.52-6.64-1-10.82-1.62ZM1283.52,497.22a122,122,0,0,0,9.4,24.25,44.6,44.6,0,0,0,13.17,15.26,38.89,38.89,0,0,0,13.85,6.48,67,67,0,0,0,16.88,2,38.73,38.73,0,0,0,12-1.83,32.65,32.65,0,0,0,10.82-5.8,28.58,28.58,0,0,0,7.79-10.24,36.61,36.61,0,0,0,3-15.05,33.94,33.94,0,0,0-9.94-25,83.74,83.74,0,0,0-12.8-10.55q-7.76-5.25-18.34-11.45a171.44,171.44,0,0,1-24.51-16.3,63.57,63.57,0,0,1-16.31-18.87q-5.81-10.43-5.91-24.41a51.46,51.46,0,0,1,4.86-22.42,47.94,47.94,0,0,1,13.23-16.67,59.38,59.38,0,0,1,19.6-10.35,79.67,79.67,0,0,1,24.09-3.55,168.6,168.6,0,0,1,19.07,1.1c5.54.73,10.61,1.51,15.21,2.4s9,1.57,13.38,2.14c-.73,3.5-1.41,7.63-2.09,12.39s-1.25,9.72-1.78,15-1,10.45-1.46,15.57a3.46,3.46,0,0,1-2.56,1.26,14.29,14.29,0,0,1-4,.1,3.76,3.76,0,0,1-2.56-1,116.35,116.35,0,0,0-2.35-15.47,36.63,36.63,0,0,0-3.77-10.35,19.09,19.09,0,0,0-6.11-6.48,33.18,33.18,0,0,0-11.76-5.18,58.4,58.4,0,0,0-13.64-1.41,35.51,35.51,0,0,0-14.22,2.83,29.61,29.61,0,0,0-10.24,7.42,31.86,31.86,0,0,0-6.22,10.24,34,34,0,0,0-2.25,11.5,39.64,39.64,0,0,0,2.62,15.05A34.89,34.89,0,0,0,1317,421a72.71,72.71,0,0,0,11.4,9.41c4.23,2.71,8.67,5.38,13.27,7.89s9.15,5,13.59,7.37,8.41,4.6,12,6.69a93.5,93.5,0,0,1,15,11.55,49.71,49.71,0,0,1,10.87,14.94,46.49,46.49,0,0,1,4.18,19.91,53.93,53.93,0,0,1-4.65,22.06,54.94,54.94,0,0,1-13.59,18.45A63.72,63.72,0,0,1,1357.26,552c-8.63,3.14-18.45,4.7-29.53,4.76a111.29,111.29,0,0,1-18.4-1.68,127,127,0,0,1-15.89-3.86,75.27,75.27,0,0,1-10.87-4.18,20.55,20.55,0,0,1-1.88-5.44c-.73-2.72-1.41-6-2.14-9.83s-1.41-7.73-2.09-11.81-1.2-7.84-1.67-11.39-.79-6.38-1-8.57a4.38,4.38,0,0,1,2.46-1.78,19.31,19.31,0,0,1,4.18-1.15,5.55,5.55,0,0,1,3.09.11ZM1097.25,365.83a3.78,3.78,0,0,1-.89-2.51,14.43,14.43,0,0,1,.21-3.61,7.37,7.37,0,0,1,1-2.66c2.67,0,6.12.1,10.4.31s9.1.42,14.43.63,11,.31,16.88.31H1201c4.08,0,8.37-.05,12.86-.1s8.73-.21,12.65-.42,7-.42,9.3-.73a5.85,5.85,0,0,1,.73.78,1.91,1.91,0,0,1,.53.79c-.63,2.4-1.26,5.38-1.83,8.93s-1.1,7.32-1.57,11.34-.94,8.05-1.31,12-.68,7.48-.94,10.67a4.62,4.62,0,0,1-2.87,1,19,19,0,0,1-4.18.16,5.17,5.17,0,0,1-2.67-.58c-.47-4.49-1-8.2-1.62-11.23s-1.2-5.59-1.83-7.89a22.09,22.09,0,0,0-2.87-6.22,11.41,11.41,0,0,0-4.71-3.87,24.65,24.65,0,0,0-8.1-1.83c-1-.05-2.82-.1-5.33-.16s-5.49-.05-8.83-.05-6.9-.05-10.51-.05-7.1.05-10.4.05-6.06.05-8.36.05-3.81.11-4.54.16a3.68,3.68,0,0,0-1.94,1.46,8.67,8.67,0,0,0-1.36,2.41,6.15,6.15,0,0,0-.47,2.09c0,3.55-.1,7.68-.15,12.28s-.06,9.51-.11,14.63,0,10.14,0,15.11V443.6a3,3,0,0,0,.42,1.46,1.48,1.48,0,0,0,1.15.73c3.19.11,6.95.16,11.18.16s8.73.05,13.28,0,8.93-.11,13-.26,7.63-.32,10.5-.53c3.35-.36,5.81-1.36,7.32-3.08a14.27,14.27,0,0,0,3.34-6.32c.63-1.73,1.26-3.66,1.83-5.8s1.15-4.4,1.62-6.75a9.25,9.25,0,0,1,3.24-.52,19.73,19.73,0,0,1,4.29.31,5.2,5.2,0,0,1,2.82,1.15c-.31,2.15-.62,4.81-1,8s-.63,6.64-.84,10.35-.36,7.42-.36,11.13c0,5.75.05,11,.21,15.68s.26,8.94.41,12.86a6,6,0,0,1-3.13,1.09,15.4,15.4,0,0,1-4.39.16,5.42,5.42,0,0,1-3.14-.94c-.31-2.14-.57-4-.78-5.44s-.47-2.71-.73-3.86a32.45,32.45,0,0,0-1-3.56,13.52,13.52,0,0,0-3.08-6c-1.51-1.72-4.08-2.77-7.58-3.13-2.4-.26-5.64-.42-9.67-.52s-8.36-.21-13-.27-9.14-.05-13.43,0-7.94.06-10.92.16c-.37.05-.68.37-1.05.89a3.49,3.49,0,0,0-.52,1.62V473c0,4.13,0,8.62,0,13.38s.05,9.51.11,14.32.1,9.25.15,13.48.21,7.84.32,10.92a13.86,13.86,0,0,0,2.19,7.84,9.75,9.75,0,0,0,5,4.08,40.76,40.76,0,0,0,6,.78c2.66.27,5.8.42,9.35.58s7.16.26,11,.31,7.42.16,10.92.16,6.53,0,9.15,0a50.83,50.83,0,0,0,10.76-1.2,18.51,18.51,0,0,0,6.9-3.34,31.38,31.38,0,0,0,5.54-5.81,54.53,54.53,0,0,0,5.38-7.57c1.89-3.09,3.77-6.43,5.54-9.93s3.4-6.9,4.76-10.09a7,7,0,0,1,2.77.42,25.79,25.79,0,0,1,3.76,1.36,8.45,8.45,0,0,1,2.56,1.67c-.41,2.51-1.09,5.64-2,9.51s-2.09,7.84-3.35,12.07-2.61,8.26-4,12.08a89.26,89.26,0,0,1-3.82,9.3,6.89,6.89,0,0,1-2.4,2.82,13.23,13.23,0,0,1-5.43,1.67,90.81,90.81,0,0,1-11.61.53c-8.67,0-17.24-.11-25.61-.32s-17.09-.42-26.13-.62-19-.32-29.79-.32c-10.45.05-19.7.21-27.8.47s-15.37.42-21.74.47a4,4,0,0,1-.89-2.4,16.1,16.1,0,0,1-.16-3.87,5.26,5.26,0,0,1,.74-2.82c4.91-.42,9.35-.89,13.43-1.31a70.94,70.94,0,0,0,10.4-1.83,13.41,13.41,0,0,0,5.9-2.77,11.19,11.19,0,0,0,3.24-5.33,38.17,38.17,0,0,0,1.52-8.83c.1-1.57.16-4.7.21-9.41s0-10.5,0-17.51,0-14.63,0-23V426.09c0-6.8,0-13,0-18.66s0-10.5,0-14.42-.11-6.59-.21-8.05a45.25,45.25,0,0,0-1-8.73,8.72,8.72,0,0,0-2.71-4.81,14.38,14.38,0,0,0-5.65-2.46,58.78,58.78,0,0,0-7.11-1.67c-2.77-.52-5.9-1-9.51-1.46Zm-237.06.31a4.84,4.84,0,0,1-.52-2.51,18.27,18.27,0,0,1,.21-3.81,4.32,4.32,0,0,1,.94-2.46c2.66,0,6.06.11,10.19.26s8.62.27,13.64.42,10.08.26,15.36.26c3.19,0,6,0,8.47-.05a48.7,48.7,0,0,0,5.64-.26,28.74,28.74,0,0,0,1.68,3.5,53.93,53.93,0,0,0,3.34,5.12q2.28,3.22,6.27,8.31c5.39,6.74,11.5,14.37,18.29,22.79s14,17.25,21.43,26.44,14.9,18.24,22.32,27.28,14.32,17.51,20.85,25.4,12.28,14.85,17.19,20.8,8.68,10.41,11.24,13.38a1,1,0,0,0,.73.11,2.18,2.18,0,0,0,.53-.42c0-8.68,0-17.72,0-27.23s0-19,0-28.53-.06-18.61-.11-27.34-.21-16.56-.42-23.62-.41-12.86-.73-17.46a31.1,31.1,0,0,0-1.25-7.78,12,12,0,0,0-3.5-5.44,18,18,0,0,0-7.16-3.39c-2.83-.79-6-1.52-9.46-2.15s-7.32-1.15-11.55-1.62a4.69,4.69,0,0,1-.79-2.61,22.32,22.32,0,0,1,.11-3.76,5.14,5.14,0,0,1,.68-2.41c4.12.06,9.72.21,16.72.47s15.42.42,25,.47c2.72,0,5.75-.05,9.15-.15l9.93-.32c3.29-.1,6.22-.21,8.78-.31s4.28-.16,5.38-.16a4.09,4.09,0,0,1,.84,2.41,15.76,15.76,0,0,1,0,3.76,5.08,5.08,0,0,1-.84,2.61c-2.77.47-5.28.94-7.47,1.47s-4.34,1-6.33,1.67a16,16,0,0,0-6.27,3.76,13.56,13.56,0,0,0-3.13,5.65,31.44,31.44,0,0,0-1.26,7.52q-1.33,18-1.62,48.61t-.89,74.94c0,4.86.06,10,.11,15.26s.1,10.35.21,15.16.21,9,.31,12.54c-.94-.1-2.35-.16-4.29-.16s-4.07-.1-6.42-.1-4.45,0-6.43.1-3.5.06-4.5.16q-3.68-5.25-11-14.9c-4.86-6.37-10.61-13.79-17.14-22.21s-13.44-17.24-20.8-26.6S967.07,470.3,959.64,461s-14.42-18.19-21.11-26.55S926,418.67,920.92,412.24s-9-11.29-11.81-14.74a.84.84,0,0,0-.74-.1.77.77,0,0,0-.52.41c-.1,5.44-.21,11.82-.26,19.13s-.1,15.05-.16,23.26,0,16.51,0,24.77.06,16.1.11,23.52.1,13.9.21,19.6.26,10,.42,13a32.75,32.75,0,0,0,1.77,10,12.63,12.63,0,0,0,4.29,5.86,17.27,17.27,0,0,0,6.79,2.92,48.61,48.61,0,0,0,8.21,1.83c3.19.42,6.69.89,10.61,1.31a4.05,4.05,0,0,1,.62,2.61,19.57,19.57,0,0,1-.41,3.87,7.28,7.28,0,0,1-.84,2.61c-3.82-.05-9.09-.21-15.84-.47s-14.52-.42-23.36-.47q-14.26.08-23.52.47t-14.11.47a5.38,5.38,0,0,1-.62-2.56,23.92,23.92,0,0,1,0-4,5.38,5.38,0,0,1,.62-2.56c3.4-.31,6.48-.68,9.15-1.15s5.17-1.05,7.47-1.67a18.44,18.44,0,0,0,6.17-3,13.17,13.17,0,0,0,4-5.75,30.62,30.62,0,0,0,1.78-9.72c.31-4.13.63-10.3.89-18.45s.52-18,.78-29.64.42-24.51.63-38.88.36-29.79.52-46.3a19.28,19.28,0,0,0-.68-5.23,15.92,15.92,0,0,0-2.51-5.54,15.33,15.33,0,0,0-5.27-4.6,28.57,28.57,0,0,0-6.43-3.34,54.5,54.5,0,0,0-8.05-2.15C867.77,367,864.27,366.56,860.19,366.14Z"/>
        <path class="cls-2" d="M1212,111.23v99a32.19,32.19,0,0,0,4.06-1,25.63,25.63,0,0,0,8.62-4.69,35.21,35.21,0,0,0,9-10.92,50.12,50.12,0,0,0,4.85-13.91,86.91,86.91,0,0,0,.21-30.44,68.44,68.44,0,0,0-3.81-13.4,52.21,52.21,0,0,0-6.51-11.62,41.1,41.1,0,0,0-9.32-9,38.56,38.56,0,0,0-7-3.94Zm-10.52-2.91V210.7c1.23.09,2.48.13,3.78.13q1.52,0,3-.12V109.84a38.64,38.64,0,0,0-6.75-1.52Zm-14,99V108.69l-1.08.25a30.87,30.87,0,0,0-7.5,3A33.73,33.73,0,0,0,1168,122.31a46.59,46.59,0,0,0-6.42,14.7,71.3,71.3,0,0,0-2.08,17.55,77.38,77.38,0,0,0,1.36,14.4,67.52,67.52,0,0,0,4.17,13.91,54.93,54.93,0,0,0,7.17,12.29,42.61,42.61,0,0,0,10.35,9.5,39.2,39.2,0,0,0,5,2.66Zm3.77-99.21V208.78q.76.25,1.53.48a42,42,0,0,0,4.9,1V108c-.81,0-1.62-.06-2.45-.06A39.56,39.56,0,0,0,1191.31,108.11Z"/>
        <path class="cls-2" d="M711.36,533.56V368.39a52.11,52.11,0,0,0-8.27,3.71,58.61,58.61,0,0,0-18.87,18,81.22,81.22,0,0,0-11.08,25.4,123.12,123.12,0,0,0-3.6,30.31,133.88,133.88,0,0,0,2.35,24.88,117.31,117.31,0,0,0,7.21,24,94.35,94.35,0,0,0,12.39,21.22,73.18,73.18,0,0,0,17.87,16.41c.66.42,1.32.82,2,1.22ZM716.8,366.8V536.43a67.94,67.94,0,0,0,10.28,3.85,70.88,70.88,0,0,0,8.87,1.85V365.33c-1.52-.09-3.07-.13-4.64-.13a64.05,64.05,0,0,0-14.51,1.6Zm24.59-1V542.73q3.47.27,7.17.27a62,62,0,0,0,11-1V370.69c-1.91-.8-3.86-1.51-5.87-2.14a68.52,68.52,0,0,0-12.34-2.73ZM765,373.25V540.78c.73-.2,1.46-.42,2.17-.66a44.13,44.13,0,0,0,14.9-8.1,61.21,61.21,0,0,0,15.47-18.86,86.57,86.57,0,0,0,8.36-24,150,150,0,0,0,.37-52.58,117.48,117.48,0,0,0-6.59-23.15,89.2,89.2,0,0,0-11.24-20.07,71,71,0,0,0-16.09-15.58A67.12,67.12,0,0,0,765,373.25Z"/>
        <path class="cls-3" d="M1452.07,373.81a27.69,27.69,0,1,1-19.58,8.11,27.62,27.62,0,0,1,19.58-8.11Zm15,12.69a21.21,21.21,0,1,0,6.22,15A21.13,21.13,0,0,0,1467.07,386.5Z"/>
        <text class="cls-4" transform="translate(1436.22 416.27)">R</text>
      </g>
    </g>
  </g>
</svg>
